Coordinates
version=1
nRows=4
nColumns=63
inDegrees=yes

Units are S.I. units (second, meters, Newtons, ...)
If the header above contains a line with 'inDegrees', this indicates whether rotational values are in degrees (yes) or radians (no).

endheader
time	pelvis_tilt	pelvis_list	pelvis_rotation	pelvis_tx	pelvis_ty	pelvis_tz	hip_flexion_r	hip_adduction_r	hip_rotation_r	knee_angle_r	knee_angle_r_beta	ankle_angle_r	subtalar_angle_r	mtp_angle_r	hip_flexion_l	hip_adduction_l	hip_rotation_l	knee_angle_l	knee_angle_l_beta	ankle_angle_l	subtalar_angle_l	mtp_angle_l	L5_S1_Flex_Ext	L5_S1_Lat_Bending	L5_S1_axial_rotation	L4_L5_Flex_Ext	L4_L5_Lat_Bending	L4_L5_axial_rotation	L3_L4_Flex_Ext	L3_L4_Lat_Bending	L3_L4_axial_rotation	L2_L3_Flex_Ext	L2_L3_Lat_Bending	L2_L3_axial_rotation	L1_L2_Flex_Ext	L1_L2_Lat_Bending	L1_L2_axial_rotation	L1_T12_Flex_Ext	L1_T12_Lat_Bending	L1_T12_axial_rotation	Abs_r3	Abs_r2	Abs_r1	Abs_t1	Abs_t2	neck_flexion	neck_bending	neck_rotation	arm_flex_r	arm_add_r	arm_rot_r	elbow_flex_r	pro_sup_r	wrist_flex_r	wrist_dev_r	arm_flex_l	arm_add_l	arm_rot_l	elbow_flex_l	pro_sup_l	wrist_flex_l	wrist_dev_l
      7.03333333	      2.70233393	      2.40224082	     90.35292744	      0.33954508	      0.91731713	      0.63328550	     -1.75598970	      3.29035135	      4.17948477	      3.27971976	      0.05724191	     28.86104722	     -1.97732149	      0.00000000	      1.05059517	     -6.91781985	     -6.69041893	      9.78313801	      0.17074797	     32.43069026	     17.13624329	      0.00000000	      0.09685062	      0.45340055	      1.19729641	      0.17986128	      0.60302273	      1.27212743	      0.15911588	      1.10239810	      1.27212743	      0.11069057	      1.10239810	      1.04763436	      0.08993548	      0.92457440	      0.97280333	      0.05534044	      0.70231745	      0.89797231	      0.69179429	      5.12895769	      6.65900343	      0.00000000	      0.00000000	      2.17441780	     -9.36494415	     -4.55520090	     82.62006269	    -34.05545586	     51.41526667	     92.50648689	     86.93712003	     19.04694680	     16.47272526	     27.03085821	    -18.76947057	     25.38944538	    111.17947605	     68.27052652	    -15.56933178	     19.01617195
      7.05000000	      2.79556426	      2.38696309	     90.42807047	      0.33909140	      0.91737920	      0.63346915	     -1.76715712	      3.38504438	      5.18165350	      3.20359050	      0.05591320	     28.47378489	     -3.41406685	      0.00000000	      1.09626525	     -6.97345603	     -6.65185070	      9.60078054	      0.16756523	     32.45075247	     17.31155753	      0.00000000	      0.08328117	      0.48077390	      1.05163788	      0.15466145	      0.63942928	      1.11736525	      0.13682263	      1.16895365	      1.11736525	      0.09518204	      1.16895365	      0.92018315	      0.07733489	      0.98039413	      0.85445578	      0.04758686	      0.74471877	      0.78872841	      0.59486904	      5.43861048	      5.84889442	      0.00000000	      0.00000000	      3.03736783	     -9.49945978	     -2.66628111	     82.17012487	    -32.93806642	     49.76672639	     91.29409662	     87.83230627	     18.63040535	     14.18504867	     26.77526713	    -19.05067517	     24.36680727	    111.33187202	     65.15791161	    -14.80874032	     19.23942853
      7.06666667	      2.86679133	      2.34993679	     90.23529010	      0.33855035	      0.91744417	      0.63392087	     -1.67741678	      3.39179342	      5.36670824	      3.26595523	      0.05700167	     28.37493037	     -3.45831336	      0.00000000	      1.11716027	     -6.96668883	     -6.76696579	      9.41228172	      0.16427531	     32.29882107	     17.23694269	      0.00000000	      0.07300972	      0.49991785	      1.03230068	      0.13558636	      0.66489074	      1.09681947	      0.11994767	      1.21550026	      1.09681947	      0.08344281	      1.21550026	      0.90326309	      0.06779683	      1.01943248	      0.83874430	      0.04171776	      0.77437275	      0.77422551	      0.52150115	      5.65517070	      5.74134669	      0.00000000	      0.00000000	      3.44315536	     -9.59119047	     -2.38442302	     82.34647856	    -32.54177237	     48.66903012	     90.51623180	     88.05551432	     18.28586925	     13.95458838	     27.01466900	    -19.04652551	     24.06509860	    111.23291539	     64.34166757	    -14.81993013	     19.63087421
      7.08333333	      2.70564281	      2.35697396	     89.85227970	      0.33860403	      0.91752358	      0.63407652	     -1.61361835	      3.16644583	      5.89634081	      3.42062793	      0.05970122	     28.42423116	     -3.64117669	      0.00000000	      0.97702687	     -6.73670989	     -7.01815745	      9.16349862	      0.15993322	     32.01926186	     17.06536245	      0.00000000	      0.05912595	      0.48996007	      1.00076649	      0.10980280	      0.65164690	      1.06331440	      0.09713802	      1.19128893	      1.06331440	      0.06757505	      1.19128893	      0.87567068	      0.05490436	      0.99912658	      0.81312278	      0.03378457	      0.75894816	      0.75057487	      0.42233075	      5.54252636	      5.56596301	      0.00000000	      0.00000000	      3.78150822	     -9.44286210	     -1.37548568	     82.46027656	    -31.66955886	     47.74968323	     89.40955820	     88.40082457	     18.27872494	     12.98487052	     26.92286606	    -19.26515496	     23.31636388	    111.57475953	     60.53779811	    -14.99146117	     20.82774017
